<svg aria-hidden="true" style="position:absolute;width:0;height:0;overflow:hidden" xmlns="http://www.w3.org/2000/svg"><defs><symbol id="icon-clock" viewBox="0 0 20 20"><path fill="#212121" style="fill:var(--color1, #212121)" d="M19.56 9.563C19.559 4.28 15.276-.001 9.993 0S.429 4.285.43 9.567c.001 4.242 2.764 7.839 6.588 9.091l.068.019a.416.416 0 0 0 .331-.041.397.397 0 0 0 .177-.223l2.415-7.656a1.195 1.195 0 1 0-.532-2.267l.007-.003-3.191-3.192a.399.399 0 0 0-.564.564l3.189 3.193a1.17 1.17 0 0 0 .332 1.441l.003.002-2.301 7.296C2.403 16.115.074 11.07 1.75 6.521S8.471-.357 13.02 1.319a8.776 8.776 0 0 1 5.202 11.27 8.828 8.828 0 0 1-4.609 4.961l-.055.022-.249-1.171a.399.399 0 0 0-.656-.214l-2.398 2.141a.399.399 0 0 0 .141.677l.003.001 3.062.977a.4.4 0 0 0 .511-.465v.003l-.244-1.149c3.455-1.484 5.83-4.857 5.83-8.785v-.021.001zm-9.565-.398a.399.399 0 1 1 0 .798.399.399 0 1 1 0-.798zm1.313 9.29 1.365-1.218.377 1.775-1.742-.557z"/><path fill="#2196f3" style="fill:var(--color2, #2196f3)" d="M9.597 1.991v.797a.399.399 0 1 0 .798 0v-.797a.399.399 0 1 0-.798 0zM2.423 9.165a.399.399 0 1 0 0 .798h.797a.399.399 0 1 0 0-.798h-.797zm15.145.797a.399.399 0 1 0 0-.798h-.797a.399.399 0 1 0 0 .798h.797z"/></symbol><symbol id="icon-antena" viewBox="0 0 19 20"><path fill="#212121" style="fill:var(--color1, #212121)" d="m18.662 13.811-5.277-5.316.586-2.885c.14.057.303.09.474.091h.021a1.349 1.349 0 1 0-1.268-.887l-.003-.009-3.1.379L5.038.101a.334.334 0 0 0-.235-.1.334.334 0 0 0-.233.097l-.945.94a.334.334 0 0 0 0 .472l.509.516a9.228 9.228 0 0 0-1.135 4.462 9.31 9.31 0 0 0 2.71 6.578l-.001-.001a.323.323 0 0 0 .091.061c-.02.102-.032.221-.033.341v3.867h-4A1.668 1.668 0 0 0 .099 19v.667c0 .184.149.333.334.333h15.333a.333.333 0 0 0 .333-.333V19a1.67 1.67 0 0 0-1.666-1.667h-4v-1.714a9.235 9.235 0 0 0 6.353-.939l-.048.024.511.514a.336.336 0 0 0 .235.1.334.334 0 0 0 .233-.097l.945-.94a.334.334 0 0 0 0-.472zm-4.683-9.915a.665.665 0 0 1 1.137.473.666.666 0 0 1-.667.667h-.002a.667.667 0 0 1-.467-1.14h-.001zm-.785 2.19-.374 1.841-.735-.739 1.109-1.102zm-.379-.564-1.2 1.193-.929-.933 2.129-.26zM14.431 18a1 1 0 0 1 1 1v.333H.764V19a1 1 0 0 1 1-1h12.667zm-4.666-1.333v.667H6.432v-.667h3.333zM6.431 16v-2.533c0-.809.748-1.467 1.667-1.467s1.667.658 1.667 1.467V16H6.432zm4-1.06v-1.473c0-1.176-1.047-2.133-2.333-2.133h-.036c-.845 0-1.588.442-2.008 1.107l-.006.01a8.635 8.635 0 0 1-2.382-5.969c0-1.446.354-2.81.981-4.009l-.023.048L16.25 14.214a8.518 8.518 0 0 1-3.916.939c-.674 0-1.33-.077-1.96-.223l.058.011zm7.056-.427L4.326 1.275l.471-.47 4.959 4.987c.002 0 .004.004.006.006l8.197 8.245-.473.47z"/><path fill="#2196f3" style="fill:var(--color2, #2196f3)" d="M8.101 12.667h-.005a1 1 0 0 0-.002 2h.004a1 1 0 0 0 .002-2zm.233 1.236a.333.333 0 1 1-.236-.569.334.334 0 0 1 .234.569h.003z"/></symbol><symbol id="icon-astronaut" viewBox="0 0 20 20"><path fill="#2196f3" style="fill:var(--color2, #2196f3)" d="M19.984 2.827a.334.334 0 0 0-.267-.226h-.002l-1.194-.174-.534-1.082c-.112-.228-.486-.228-.597 0l-.534 1.082-1.194.174a.335.335 0 0 0-.186.569l.865.842-.204 1.189a.335.335 0 0 0 .132.326.33.33 0 0 0 .351.025l1.068-.562 1.068.562a.334.334 0 0 0 .484-.354V5.2l-.204-1.189.864-.843a.333.333 0 0 0 .083-.344l.001.002zm-1.539.83a.333.333 0 0 0-.096.295l.119.696-.625-.329a.333.333 0 0 0-.312 0l.002-.001-.625.329.119-.696a.336.336 0 0 0-.095-.295l-.507-.493.699-.101a.333.333 0 0 0 .251-.183l.313-.633.313.633a.333.333 0 0 0 .251.183l.699.101-.506.493zm-2.112 9.169h-.667v.667h.667v-.667zm0 1.334h-.667v.666h.667v-.666zm.667-.667h-.667v.667H17v-.667zm-1.333 0H15v.667h.667v-.667zm-1.667 3h-.667v.667H14v-.667zm0 1.334h-.667v.667H14v-.667zm.667-.667H14v.667h.667v-.667zm-1.334 0h-.667v.667h.667v-.667zm-3.333-2h-.667v.667H10v-.667zm0 1.333h-.667v.667H10v-.667zm.667-.667H10v.667h.667v-.667zm-1.334 0h-.667v.667h.667v-.667zm-5.666-12H3v.667h.667v-.667zm0 1.334H3v.667h.667v-.666zm.666-.667h-.667v.667h.667v-.667zM3 4.493h-.667v.667H3v-.667z"/><path fill="#212121" style="fill:var(--color1, #212121)" d="M15.447 8.85a1.112 1.112 0 0 0-.737-.44l-.006-.001a1.124 1.124 0 0 0-.84.222l.003-.002-.783.6-1.186.886-.849-.338a4.337 4.337 0 0 0 2.571-3.95c0-2.389-1.951-4.333-4.351-4.333S4.918 3.438 4.918 5.827c0 .866.259 1.671.7 2.349l-1.73-.015-.015.003a.355.355 0 0 0-.099.02l.002-.001-.024.008-.012.004-2.021.997-.001.001-1.183.569a.22.22 0 0 0-.04.023l.001-.001a1.114 1.114 0 0 0-.371 1.442l-.003-.006c.137.265.37.464.652.553l.008.002a1.109 1.109 0 0 0 .868-.083l-.006.003.867-.461 1.415-.731.848-.005-3.401 3.385-.001.001-.837.833a1.028 1.028 0 0 0-.307.733v.003c.001.575.467 1.04 1.042 1.04h.002c.267 0 .534-.101.738-.303l.821-.818 1.088-.812.563.561-1.939 1.93a1.028 1.028 0 0 0-.307.733v.003a1.04 1.04 0 0 0 1.042 1.04h.002c.267 0 .534-.101.738-.303l2.805-2.795c.004-.004.01-.005.014-.01l3.229-3.536 2.169.309a.34.34 0 0 0 .164-.021c.011-.004.02-.009.031-.015.012-.006.025-.009.036-.017l2.008-1.333c.007-.005.011-.013.018-.019.008-.006.018-.009.025-.016l.794-.744a1.11 1.11 0 0 0 .131-1.479l.002.003zM1.331 11.106a.436.436 0 0 1-.352.032l.003.001a.447.447 0 0 1-.134-.786l.001-.001.821-.395.198.578.083.243-.62.329zm2.186-1.142-.968.5-.159-.467-.115-.335 1.267-.625-.025.927zm9.437-4.138c0 .574-.137 1.115-.374 1.6L9.967 6.239a1.165 1.165 0 0 0-.489-.865l-.004-.002.915-3.038a3.674 3.674 0 0 1 2.565 3.493zm-7.368 0c0-2.022 1.653-3.667 3.684-3.667.158 0 .313.013.466.033l-.895 2.971c-.012 0-.023-.004-.036-.004h-.001a1.17 1.17 0 0 0-1.17 1.167 1.166 1.166 0 0 0 2.181.577L12.229 8a3.684 3.684 0 0 1-2.961 1.494c-2.031 0-3.684-1.645-3.684-3.667zm3.723.5c0 .276-.226.5-.504.5h-.001a.503.503 0 0 1-.503-.5.503.503 0 0 1 1.007 0zm-7.769 9.39a.379.379 0 0 1-.534 0 .37.37 0 0 1 0-.528l.601-.599.533.53-.599.597zm2.009 2.334a.379.379 0 0 1-.534 0 .37.37 0 0 1 0-.528l.602-.599.532.53-.6.597zm2.176-2.168-.001.001-1.103 1.1-.533-.53 1.103-1.098a.313.313 0 0 0 .056-.085c.004-.009.013-.016.016-.025.01-.026.012-.053.016-.08.002-.015.009-.03.009-.046 0-.022-.008-.044-.013-.066-.004-.02-.004-.04-.012-.06a.322.322 0 0 0-.057-.086c-.006-.007-.009-.017-.015-.024H5.19l-.001-.001-1.004-1c-.011-.011-.024-.015-.036-.024a.324.324 0 0 0-.053-.035l-.002-.001a.308.308 0 0 0-.056-.02h-.002a.306.306 0 0 0-.063-.012h-.015a.36.36 0 0 0-.047.003h.002a.291.291 0 0 0-.124.041c-.013.007-.027.009-.038.018l-1.109.827-.563-.561 1.499-1.491 2.725 2.681-.58.574zm4.262-4.386c-.01-.001-.019.002-.029.002h-.017a.345.345 0 0 0-.057.005h.002a.312.312 0 0 0-.117.044l.001-.001a.314.314 0 0 0-.052.038c-.008.007-.018.01-.025.018l-2.936 3.216-2.705-2.66 1.771-1.761a.333.333 0 0 0-.237-.57h-.001l-1.387.008.017-1.005 1.94.017a4.333 4.333 0 0 0 3.111 1.313h.002a4.4 4.4 0 0 0 .8-.077c.025.02.05.04.081.053l1.506.6.095.474.111.553-1.877-.267zm2.526.112-.196-.974.904-.675.591.785-1.3.863zm2.345-1.77-.523.491-.582-.773.519-.398a.454.454 0 0 1 .639.089.447.447 0 0 1-.053.592z"/><path fill="#212121" style="fill:var(--color1, #212121)" d="m8.501 11.59-1.339-1.333a.331.331 0 0 0-.47 0L5.353 11.59a.336.336 0 0 0 0 .472l1.339 1.333a.331.331 0 0 0 .47 0l1.339-1.333a.334.334 0 0 0 0-.472zm-1.574 1.099-.867-.863.867-.863.867.863-.867.863zm3.801-9.52-.161.647c.045.011 1.086.282 1.086 1.343h.667c0-1.261-1.041-1.853-1.592-1.99zm1.591 2.657h-.667v.667h.667v-.667z"/></symbol><symbol id="icon-diagram" viewBox="0 0 20 20"><path fill="#2196f3" style="fill:var(--color2, #2196f3)" d="M9.329 9.353h.666v2.999h-.666V9.353zm2.665 1.333h.666v1.666h-.666v-1.666zm-5.331.999h.666v.666h-.666v-.666zm-1.999-.333h.666v.999h-.666v-.999z"/><path fill="#212121" style="fill:var(--color1, #212121)" d="M.999 17.682H16.99a.999.999 0 0 0 .999-.999V15.35a.999.999 0 0 0-.999-.999h-.333V6.042l1.892-1.793a1.005 1.005 0 1 0-.464-.47l-.003-.006-1.426 1.351v-.769a.999.999 0 0 0-.999-.999H2.33a.999.999 0 0 0-.999.999v9.995H.998a.999.999 0 0 0-.999.999v1.333c0 .552.447.999.999.999zM18.99 3.023a.333.333 0 1 1 0 .666.333.333 0 1 1 0-.666zM1.999 4.355c0-.184.149-.333.333-.333h13.327c.184 0 .333.149.333.333v1.399l-.666.633V5.021a.333.333 0 0 0-.333-.333H3a.333.333 0 0 0-.333.333v8.329c0 .184.149.333.333.333h11.993a.333.333 0 0 0 .333-.333V7.303l.666-.631v7.677H1.999V4.355zm2.998 4.332h-.003a.999.999 0 1 0 .695 1.717l1.158.581a.333.333 0 0 0 .398-.077l2.462-2.77 2.42 1.813c.13.097.311.087.429-.025l2.103-1.992v5.082H3.332V5.353h11.327v1.663l-2.357 2.232-2.44-1.829a.334.334 0 0 0-.449.044l-2.495 2.808-.933-.467a.973.973 0 0 0 .013-.121.999.999 0 0 0-.999-.999zm.334.999a.333.333 0 1 1-.666 0 .333.333 0 1 1 .666 0zm1.998 5.331h3.331v.333a.333.333 0 0 1-.333.333H7.662a.333.333 0 0 1-.333-.333v-.333zm-6.662.333c0-.184.149-.333.333-.333h5.664v.333c0 .552.447.999.999.999h2.665a.999.999 0 0 0 .999-.999v-.333h5.664c.184 0 .333.149.333.333v1.333a.333.333 0 0 1-.333.333H1a.333.333 0 0 1-.333-.333V15.35z"/></symbol><symbol id="icon-facebook" viewBox="0 0 20 20"><path  d="M13.33 3.32h1.827V.14C14.387.051 13.494 0 12.59 0h-.098.005C9.864 0 8.06 1.656 8.06 4.7v2.8H5.156v3.555H8.06V20h3.562v-8.944h2.787l.442-3.555h-3.23V5.05c0-1.027.277-1.73 1.709-1.73z"/></symbol><symbol id="icon-group" viewBox="0 0 17 20"><path fill="#afb1b8" style="fill:var(--color3, #afb1b8)" d="m2.553 0 2.982 2.823L0 2.82v13.697h14.468V11.28l2.979 2.82V0H2.553zm11.784 10.948L5.882 2.944h8.455v8.004zm-2.625 3.565H2.289V5.302h.666v8.588h8.757v.623zM4.515 18.34l-.348.717-.348-.717h-.292l.508.956v.557h.264v-.557l.507-.956h-.291zm.437 1.513.123-.352h.586l.123.352h.274l-.572-1.513H5.25l-.571 1.513h.273zm.416-1.191.219.627h-.438l.219-.628zm1.386.591a.338.338 0 0 0-.057.19v.003c0 .128.045.231.134.311s.21.119.36.119a.626.626 0 0 0 .386-.122l.085.101h.293l-.222-.263a.757.757 0 0 0 .131-.458h-.219a.604.604 0 0 1-.063.277l-.292-.345.103-.075a.565.565 0 0 0 .156-.156l.001-.002a.329.329 0 0 0 .048-.172V18.652a.31.31 0 0 0-.106-.234.378.378 0 0 0-.255-.098h-.016.001c-.122 0-.219.035-.291.104s-.108.162-.108.281c0 .049.011.098.034.151.024.052.065.115.123.189a.88.88 0 0 0-.225.209zm.682.334a.388.388 0 0 1-.239.085h-.012a.25.25 0 0 1-.169-.066.225.225 0 0 1-.068-.162v-.009c0-.081.042-.153.125-.216l.032-.023.33.39zm-.271-.67c-.071-.088-.107-.161-.107-.219 0-.051.015-.092.044-.126a.147.147 0 0 1 .111-.05h.012c.042 0 .08.016.108.043.03.028.045.062.045.101v.006a.187.187 0 0 1-.064.141l-.032.026-.115.079zm2.462.822a.552.552 0 0 0 .179-.378h-.262c-.014.108-.047.185-.099.231s-.13.07-.233.07c-.113 0-.199-.043-.257-.129s-.088-.211-.088-.374v-.134c.002-.162.033-.283.094-.367s.15-.126.264-.126c.098 0 .173.024.223.072s.083.126.096.235h.262c-.017-.166-.076-.294-.178-.384s-.236-.136-.403-.136a.58.58 0 0 0-.544.336l-.001.004a.878.878 0 0 0-.076.36v.019-.001.141c.002.139.028.261.078.367s.121.186.212.244a.594.594 0 0 0 .319.085.609.609 0 0 0 .414-.135zm1.545-.212a.937.937 0 0 0 .077-.391v-.099a.9.9 0 0 0-.082-.378l.002.006a.578.578 0 0 0-.219-.254l-.002-.001c-.095-.06-.204-.089-.327-.089s-.232.03-.328.09a.588.588 0 0 0-.221.259.913.913 0 0 0-.078.372v.02-.001.085c.001.145.027.272.079.383s.127.197.223.257.206.089.328.089a.577.577 0 0 0 .549-.347zm-.281-.856c.064.089.095.218.095.386v.079c0 .17-.031.3-.094.389s-.151.133-.268.133h-.011a.314.314 0 0 1-.258-.135l-.001-.001c-.065-.091-.097-.219-.097-.386v-.087c.001-.163.034-.289.097-.377a.31.31 0 0 1 .256-.134h.011-.001a.31.31 0 0 1 .269.134z"/></symbol><symbol id="icon-group1" viewBox="0 0 15 20"><path fill="#afb1b8" style="fill:var(--color3, #afb1b8)" d="M6.582 1.129h-.053c-.081-.005-.162-.007-.242-.009h-.175a9 9 0 0 0-.463.012l-.018-.001-.018.001h.001a10.856 10.856 0 0 0-4.11 1.06l.065-.028-.166.08v8.516l.389-.132c.342-.117.705-.223 1.082-.321.93-.249 2.001-.399 3.104-.413h.009v1.119a9.217 9.217 0 0 0-.41.012h-.032c-.874.049-1.693.18-2.482.387l.087-.019a12.17 12.17 0 0 0-2.917 1.144l.063-.032V1.583a11.18 11.18 0 0 1 2.915-1.2L3.29.366C4.136.139 5.107.006 6.109.002h.167c.197.005.388.014.568.027.518.037.998.117 1.462.237L8.25.254v1.101a8.316 8.316 0 0 0-1.334-.204l-.028-.002-.028-.002c-.095-.008-.19-.016-.278-.016zM8.52 2.254c.244.019.497.028.753.028a12.116 12.116 0 0 0 3.051-.4l-.084.019A12.182 12.182 0 0 0 15.155.756l-.063.032v10.727c-.862.512-1.859.929-2.915 1.2l-.079.017c-.846.227-1.817.359-2.819.363H9.207a8.657 8.657 0 0 1-2.131-.265l.06.013V2.046c.165.038.336.073.509.103.284.048.584.083.876.105zm5.46.084-.389.131c-.358.12-.719.228-1.082.324-.969.259-2.083.41-3.231.415h-.003c-.254 0-.487-.007-.713-.022l-.31-.02v8.76l.267.023c.247.022.502.033.759.033a10.353 10.353 0 0 0 2.618-.346l-.072.016a10.655 10.655 0 0 0 2.053-.743l-.064.028.167-.08V2.339zM1.053 16.235a.574.574 0 0 0-.413-.175H.619.62.611a.632.632 0 0 0-.246.049l.004-.002a.567.567 0 0 0-.319.32l-.001.004a.626.626 0 0 0-.045.242v1.459a.682.682 0 0 0 .057.299.589.589 0 0 0 .146.196.511.511 0 0 0 .2.104c.071.02.145.03.218.03a.616.616 0 0 0 .604-.614v-.163H.847v.139a.341.341 0 0 1-.023.124l.001-.002a.237.237 0 0 1-.055.082.267.267 0 0 1-.159.056l-.022.001a.193.193 0 0 1-.156-.079v-.001a.342.342 0 0 1-.051-.181v-.015.001-1.361a.471.471 0 0 1 .047-.218.194.194 0 0 1 .188-.088H.616h.007c.067 0 .126.032.163.082v.001a.31.31 0 0 1 .063.188v.135h.378v-.156a.686.686 0 0 0-.048-.253l.002.005a.603.603 0 0 0-.128-.206zm2.266-.016a.657.657 0 0 0-.662-.12.6.6 0 0 0-.348.32l-.002.004a.685.685 0 0 0-.056.283v1.399a.693.693 0 0 0 .056.287.581.581 0 0 0 .148.196.657.657 0 0 0 .865-.001l-.001.001a.593.593 0 0 0 .144-.196.687.687 0 0 0 .056-.287v-1.412a.672.672 0 0 0-.058-.274l.002.004a.627.627 0 0 0-.144-.204zm-.178 1.886.001.022a.25.25 0 0 1-.077.181.278.278 0 0 1-.36-.001.253.253 0 0 1-.077-.181l.001-.023v.001-1.4l-.001-.021a.25.25 0 0 1 .077-.181.278.278 0 0 1 .36.001c.047.046.077.11.077.18l-.001.023v-.001 1.4zm3.154.626v-2.65h-.367l-.482 1.403h-.007l-.486-1.402H4.59v2.649h.378v-1.612h.007l.37 1.139h.189l.374-1.139h.007v1.612h.378zm2.15-2.464a.533.533 0 0 0-.214-.145.829.829 0 0 0-.26-.041h-.015.001-.562v2.65h.378v-1.035h.194a.706.706 0 0 0 .341-.072.55.55 0 0 0 .206-.2l.001-.003a.653.653 0 0 0 .087-.231c.013-.083.021-.18.021-.277v-.025.001a1.498 1.498 0 0 0-.037-.378.58.58 0 0 0-.139-.244zm-.194.808a.326.326 0 0 1-.036.14l.001-.002a.208.208 0 0 1-.096.092l-.001.001a.39.39 0 0 1-.159.034l-.021-.001h.001-.172v-.901h.213c.055 0 .108.012.154.034l-.002-.001a.22.22 0 0 1 .088.096l.001.001a.38.38 0 0 1 .033.148v.176c0 .062.004.125 0 .182h-.004zm1.983-.994h-.31l-.584 2.65h.378l.111-.569h.515l.111.569h.378l-.598-2.65zM9.885 17.8l.186-.96h.007l.185.96h-.377zm2.788-.123h-.007l-.57-1.596h-.363v2.65h.378v-1.593h.008l.577 1.593h.355v-2.649h-.377v1.596zm2.307-1.596-.304 1.054h-.008l-.304-1.054h-.399l.518 1.53v1.12h.378v-1.12l.518-1.53h-.4zM0 19.479h.182v.51h.123v-.511h.181v-.105H0v.105zm1.53-.105-.238.615h.131l.051-.14h.245l.053.14h.135l-.245-.615h-.131zm-.02.372.083-.228.083.228h-.167zm1.532.016h.142v.079a.234.234 0 0 1-.146.052h-.009a.157.157 0 0 1-.122-.059.253.253 0 0 1-.046-.146v-.015.001c0-.137.059-.205.177-.205l.013-.001a.13.13 0 0 1 .126.098v.001l.122-.024c-.026-.12-.113-.181-.261-.181H3.03c-.08 0-.152.03-.207.08a.299.299 0 0 0-.088.238v-.001.014c0 .083.03.158.08.217.054.056.13.091.215.091L3.05 20h-.001.01a.368.368 0 0 0 .251-.098v-.242h-.267v.104zm1.544-.388h-.125v.615h.431v-.105h-.306v-.511zm1.306 0h-.125v.615h.125v-.615zm1.276.411-.252-.411h-.12v.615h.115v-.402l.247.402h.124v-.615h-.114v.411zm1.154-.067h.307v-.105h-.307v-.135h.33v-.105h-.454v.615h.467v-.105h-.342v-.167zm2.798-.101h-.242v-.242h-.123v.615h.123v-.269h.242v.269h.124v-.615h-.124v.243zm1.161.101h.308v-.105h-.308v-.135h.331v-.105h-.454v.615h.466v-.105h-.342v-.167zm1.574 0c.107-.017.162-.073.162-.171l.001-.017a.145.145 0 0 0-.061-.119.345.345 0 0 0-.156-.037l-.025.001h.001-.261v.615h.124v-.257h.034c.024 0 .047.005.068.015h-.001a.135.135 0 0 1 .044.045l.134.195h.148l-.075-.12a.434.434 0 0 0-.135-.147l-.002-.001zm-.125-.085h-.091v-.154h.097l.026-.001a.34.34 0 0 1 .102.016l-.002-.001a.079.079 0 0 1 .027.06c0 .026-.013.05-.032.065a.337.337 0 0 1-.103.015l-.024-.001h.001zm1.312.085h.306v-.105h-.306v-.135h.331v-.105h-.455v.615h.467v-.105h-.342v-.167z"/></symbol><symbol id="icon-group2" viewBox="0 0 21 20"><path fill="#afb1b8" style="fill:var(--color3, #afb1b8)" d="M3.527 19.572c.008 0 .015.002.022.005l.019.011.104.099a.866.866 0 0 1-.292.189 1.114 1.114 0 0 1-.387.068h-.028.001a1.11 1.11 0 0 1-.389-.063.851.851 0 0 1-.294-.179h.001a.797.797 0 0 1-.188-.27l-.002-.005a.898.898 0 0 1-.066-.342v-.012.001-.018c0-.242.105-.46.272-.611l.001-.001a.953.953 0 0 1 .311-.18c.128-.043.264-.064.401-.063h.025c.124 0 .244.021.355.06l-.008-.002c.103.039.198.093.28.16l-.087.106a.08.08 0 0 1-.022.019.061.061 0 0 1-.03.008h-.005a.103.103 0 0 1-.039-.011l-.046-.029-.065-.036a.695.695 0 0 0-.201-.062l-.004-.001a.908.908 0 0 0-.143-.012h-.012.001-.009c-.1 0-.196.017-.284.05l.006-.002a.67.67 0 0 0-.227.134l.001-.001a.614.614 0 0 0-.147.212.71.71 0 0 0-.053.27v.01-.001.012c0 .098.019.192.055.278l-.002-.005a.6.6 0 0 0 .36.342.78.78 0 0 0 .267.045c.053 0 .106-.002.159-.009a.63.63 0 0 0 .344-.146l-.001.001a.076.076 0 0 1 .049-.018zm2.999-.499v.011c0 .123-.026.24-.072.346l.002-.006a.768.768 0 0 1-.194.272l-.001.001a.884.884 0 0 1-.301.177l-.006.002a1.258 1.258 0 0 1-.799-.003l.009.003a.924.924 0 0 1-.306-.18l.001.001a.809.809 0 0 1-.196-.27l-.002-.005a.904.904 0 0 1 .002-.708l-.002.006a.795.795 0 0 1 .503-.449 1.258 1.258 0 0 1 .799.003l-.009-.003c.115.04.22.101.306.179s.152.171.196.272a.866.866 0 0 1 .07.353zm-.273 0v-.015a.752.752 0 0 0-.051-.273l.002.005a.586.586 0 0 0-.354-.343l-.004-.001a.904.904 0 0 0-.58.002l.006-.002a.623.623 0 0 0-.22.134.56.56 0 0 0-.139.207l-.001.004a.822.822 0 0 0 .001.57l-.002-.006a.577.577 0 0 0 .356.342l.004.001c.185.06.389.06.574 0a.583.583 0 0 0 .358-.343.756.756 0 0 0 .05-.282zm2.319.296.027.063a1.887 1.887 0 0 1 .065-.127l-.001.002.663-1.048c.013-.018.025-.03.038-.033s.029-.006.046-.006H9.615v1.705h-.232v-1.306l-.001-.03.001-.031v.001l-.668 1.063a.09.09 0 0 1-.039.038h-.001a.116.116 0 0 1-.056.014h-.04a.107.107 0 0 1-.056-.015h.001a.093.093 0 0 1-.038-.038l-.687-1.07v1.368h-.224v-1.701H7.78c.016 0 .032.002.047.006h-.001a.073.073 0 0 1 .036.033l.678 1.049a.374.374 0 0 1 .033.059l.001.002zm2.497-.085v.638h-.259V18.22h.579c.11-.002.218.011.323.037a.658.658 0 0 1 .229.106c.055.044.099.1.128.164l.001.003c.031.07.046.144.044.218v.011c0 .154-.073.29-.187.377l-.001.001a.649.649 0 0 1-.23.112c-.088.025-.188.04-.292.04h-.022l-.313-.005zm0-.183h.314a.716.716 0 0 0 .201-.026.42.42 0 0 0 .146-.074l-.001.001a.326.326 0 0 0 .119-.252v-.004l.001-.018a.29.29 0 0 0-.027-.122l.001.002a.333.333 0 0 0-.09-.116h-.001a.556.556 0 0 0-.351-.091h.002-.314v.701zm3.49.824h-.209a.1.1 0 0 1-.054-.016.107.107 0 0 1-.034-.039v-.001l-.176-.411h-.887l-.183.411a.097.097 0 0 1-.088.055h-.209l.779-1.705h.27l.79 1.705zm-1.286-.633h.732l-.309-.694a1.184 1.184 0 0 1-.059-.16l-.03.089a.566.566 0 0 1-.029.072l-.306.692zm2.407-1.063a.116.116 0 0 1 .039.03l1.136 1.285v-1.323h.232v1.705h-.133a.123.123 0 0 1-.051-.011h.001a.143.143 0 0 1-.041-.031L15.728 18.6l.001.029-.001.031v-.001 1.267h-.232v-1.705h.138a.15.15 0 0 1 .047.008zm3.321 1.018v.677h-.26v-.676l-.718-1.027H18.261c.019 0 .036.005.05.015a.144.144 0 0 1 .035.039l.449.662c.018.029.034.054.047.079s.024.049.033.072l.033-.073a.862.862 0 0 1 .044-.078l.443-.667a.191.191 0 0 1 .033-.036.082.082 0 0 1 .051-.017h.24L19 19.248zM8.443 15.36c.113.012.227.022.343.031 1.752-.681 3.234-1.795 4.261-3.204S14.6 9.138 14.56 7.471l-1.931-1.677c.393 1.775.21 3.61-.53 5.299s-2.005 3.167-3.656 4.267z"/><path fill="#afb1b8" style="fill:var(--color3, #afb1b8)" d="m7.754 15.282.052.01c1.764-1.097 3.108-2.627 3.86-4.394s.876-3.69.357-5.519L9.273 2.99c1.112 1.964 1.56 4.162 1.29 6.338s-1.243 4.241-2.81 5.955zm9.326-5.841c-.467 1.832-1.602 3.484-3.236 4.711-.446.339-.949.658-1.48.932l-.058.027c1.33-.34 2.553-.94 3.574-1.755s1.813-1.823 2.314-2.946l-1.115-.968z"/><path fill="#afb1b8" style="fill:var(--color3, #afb1b8)" d="m16.642 9.171-1.588-1.38c-.03 1.573-.545 3.11-1.49 4.451s-2.288 2.439-3.886 3.178h.008c.356 0 .712-.019 1.066-.055 1.494-.53 2.814-1.373 3.841-2.454s1.732-2.366 2.049-3.74zm-8.658-7.19L6.09.333C4.397.902 2.94 1.901 1.911 3.201S.329 6.04.324 7.617c.006 1.743.681 3.434 1.919 4.806s2.965 2.346 4.911 2.769c1.737-1.839 2.754-4.111 2.904-6.487S9.48 3.974 7.984 1.981zm13.035 6.937c-.007-2.068-.955-4.049-2.638-5.511s-3.964-2.286-6.344-2.292h-.018c-1.144 0-2.244.191-3.269.542l.071-.021 11.598 10.076a6.726 6.726 0 0 0 .6-2.792z"/></symbol><symbol id="icon-group3" viewBox="0 0 40 20"><path fill="#2196f3" style="fill:var(--color2, #2196f3)" d="M6.26 6.24h-.001c-1.142 0-2.068.822-2.068 1.838v.001c0 1.015.926 1.838 2.068 1.838h.001c1.142 0 2.068-.823 2.068-1.838v-.001c0-1.015-.926-1.838-2.068-1.838zm15.261-.588c-.003-1.41-.635-2.761-1.756-3.758S17.124.336 15.538.333c-1.587.002-3.108.564-4.23 1.56S9.554 4.241 9.551 5.651v7.773s11.969-1.185 11.97-7.771v-.001zM0 15.976c.003.981.443 1.92 1.223 2.614s1.838 1.084 2.941 1.087c1.103-.003 2.16-.394 2.941-1.087s1.22-1.633 1.223-2.613v-5.409S0 11.393 0 15.976zm4.164.969c-.216 0-.426-.057-.606-.163a1.013 1.013 0 0 1-.399-.429l-.003-.006a.86.86 0 0 1-.061-.565l-.001.006a.94.94 0 0 1 .298-.496 1.13 1.13 0 0 1 .551-.264l.007-.001a1.218 1.218 0 0 1 .638.057l-.008-.003c.2.073.37.198.49.357s.184.347.184.538a.876.876 0 0 1-.082.372.963.963 0 0 1-.235.314l-.001.001c-.101.09-.221.162-.354.211a1.189 1.189 0 0 1-.417.074h-.001v-.004zm7.612-1.735v2.031h-.419v-2.032h.419zm.81.868v.326h-.924v-.326h.924zm.097-.868v.328h-1.021v-.328h1.021zm1.911.969v.096c0 .154-.021.293-.063.416a.919.919 0 0 1-.178.315l.001-.001a.765.765 0 0 1-.273.197c-.105.046-.222.069-.35.069s-.244-.023-.35-.069a.789.789 0 0 1-.273-.196l-.001-.001a.901.901 0 0 1-.178-.308l-.002-.006a1.256 1.256 0 0 1-.063-.397v-.019.001-.097c0-.155.021-.294.063-.416s.101-.227.177-.314a.774.774 0 0 1 .268-.196l.005-.002c.106-.046.223-.068.35-.068s.245.022.35.068c.106.046.197.112.273.198s.137.191.179.314c.043.121.064.26.064.416zm-.423.096v-.099c0-.108-.01-.203-.029-.285a.602.602 0 0 0-.088-.209l.001.002a.37.37 0 0 0-.137-.124l-.002-.001a.4.4 0 0 0-.181-.043h-.008a.373.373 0 0 0-.326.167l-.001.001a.617.617 0 0 0-.084.202l-.001.004c-.019.081-.03.174-.03.269v.017-.001.099c0 .107.01.201.03.284s.048.151.086.208a.402.402 0 0 0 .137.126l.002.001c.055.029.118.043.189.043s.133-.014.188-.043a.378.378 0 0 0 .137-.126l.001-.001a.627.627 0 0 0 .084-.204l.001-.004a1.28 1.28 0 0 0 .029-.284zm1.782.435v-.004a.267.267 0 0 0-.017-.095l.001.002a.186.186 0 0 0-.059-.081.507.507 0 0 0-.118-.073l-.003-.001a1.518 1.518 0 0 0-.19-.072l-.012-.003a2.285 2.285 0 0 1-.278-.107l.016.007a1.078 1.078 0 0 1-.22-.132l.002.002a.596.596 0 0 1-.146-.171l-.002-.003a.47.47 0 0 1-.053-.22v-.011.001-.006c0-.082.021-.159.057-.226l-.001.003c.037-.07.09-.13.156-.179a.749.749 0 0 1 .237-.116c.092-.027.193-.04.303-.04.15 0 .28.027.392.081s.198.128.26.221a.571.571 0 0 1 .094.322h-.416v-.006a.306.306 0 0 0-.039-.151l.001.002a.261.261 0 0 0-.11-.106l-.001-.001a.393.393 0 0 0-.173-.04h-.015.001-.014a.42.42 0 0 0-.17.035l.003-.001a.253.253 0 0 0-.109.087l-.001.001a.212.212 0 0 0-.036.12v.003c0 .034.009.066.025.093a.282.282 0 0 0 .077.077l.001.001c.034.024.076.048.127.069s.109.042.175.063c.11.033.208.071.291.113s.155.089.212.141c.057.052.1.111.129.177s.043.141.043.225v.02a.488.488 0 0 1-.2.394l-.001.001a.689.689 0 0 1-.233.11 1.113 1.113 0 0 1-.291.038h-.012.001c-.106 0-.208-.014-.305-.041l.008.002a.912.912 0 0 1-.27-.123l.003.002a.621.621 0 0 1-.188-.204l-.002-.003a.588.588 0 0 1-.071-.297h.42c0 .063.01.117.03.16a.276.276 0 0 0 .081.106h.001c.036.027.08.047.126.058h.002c.05.012.105.018.165.018h.015a.443.443 0 0 0 .167-.032l-.003.001a.221.221 0 0 0 .14-.205v-.003zm1.611-1.5v2.031h-.417v-2.032h.417zm.626 0v.328h-1.657v-.328h1.657zm1.601 1.705v.327H18.71v-.327h1.081zm-.944-1.705v2.031h-.419v-2.032h.419zm.803.828v.318h-.94v-.318h.94zm.14-.828v.328h-1.08v-.328h1.08zm.245 0h.757c.156 0 .289.024.401.07s.199.115.259.206c.06.091.09.203.09.336 0 .109-.018.202-.055.281s-.089.143-.154.193l-.001.001a.798.798 0 0 1-.227.121l-.006.002-.132.07h-.659l-.003-.327h.504c.061 0 .12-.015.171-.04l-.002.001a.26.26 0 0 0 .108-.107l.001-.001a.328.328 0 0 0 .038-.154V15.844a.36.36 0 0 0-.037-.161l.001.002a.253.253 0 0 0-.109-.108l-.001-.001a.402.402 0 0 0-.172-.038h-.014.001-.339v1.704h-.419V15.21zm1.136 2.031-.463-.905.442-.003.469.889v.019h-.448zm2.197-.723h-.518v-.327h.535a.436.436 0 0 0 .181-.04l-.003.001a.254.254 0 0 0 .11-.11l.001-.001a.4.4 0 0 0-.001-.332l.001.003a.283.283 0 0 0-.109-.125l-.001-.001a.36.36 0 0 0-.18-.048h-.016.001-.372v1.704h-.419v-2.031h.791c.159 0 .295.029.409.087s.202.135.262.236.09.215.09.345c0 .131-.03.244-.09.34s-.148.17-.262.221a.98.98 0 0 1-.41.078zm2.413.397v.327H24.7v-.327h1.081zm-.944-1.705v2.031h-.419v-2.032h.419zm.803.828v.318h-.94v-.318h.94zm.14-.828v.328H24.7v-.328h1.08zm1.182 0v2.031h-.417v-2.032h.417zm.625 0v.328H25.93v-.328h1.657zm1.602 1.705v.327h-1.081v-.327h1.081zm-.945-1.705v2.031h-.419v-2.032h.419zm.804.828v.318h-.94v-.318h.94zm.139-.828v.328h-1.08v-.328h1.08zm.245 0h.758c.155 0 .289.024.4.07.113.046.2.115.26.206s.09.203.09.336c0 .109-.019.202-.056.281s-.089.143-.154.193l-.001.001a.79.79 0 0 1-.228.121l-.006.002-.132.07h-.659l-.002-.327h.504c.061 0 .12-.015.171-.04l-.002.001a.26.26 0 0 0 .108-.107l.001-.001a.332.332 0 0 0 .038-.155v-.016a.368.368 0 0 0-.038-.162l.001.002a.242.242 0 0 0-.109-.108l-.001-.001a.402.402 0 0 0-.172-.038h-.014.001-.339v1.704h-.419V15.21zm1.136 2.032-.463-.905.443-.003.468.889v.019h-.448zm1.752-.532v-.004a.267.267 0 0 0-.017-.095l.001.002a.184.184 0 0 0-.058-.081.507.507 0 0 0-.118-.073l-.003-.001a1.518 1.518 0 0 0-.19-.072l-.012-.003a2.285 2.285 0 0 1-.278-.107l.016.007a1.114 1.114 0 0 1-.221-.132l.002.002a.596.596 0 0 1-.146-.171l-.002-.003a.47.47 0 0 1-.053-.22v-.011.001-.006c0-.082.021-.159.057-.226l-.001.003c.038-.07.09-.13.157-.179.067-.05.146-.089.237-.116s.193-.04.302-.04c.15 0 .281.027.392.081s.198.128.26.221a.571.571 0 0 1 .094.322h-.416v-.006a.306.306 0 0 0-.039-.151l.001.002a.261.261 0 0 0-.11-.106l-.001-.001a.393.393 0 0 0-.173-.04h-.014.001-.014a.42.42 0 0 0-.17.035l.003-.001a.253.253 0 0 0-.109.087l-.001.001a.212.212 0 0 0-.036.12v.003c0 .034.009.066.025.093a.282.282 0 0 0 .077.077l.001.001c.034.024.077.048.127.069s.108.042.174.063c.11.033.208.071.291.113s.155.089.212.141c.057.052.1.111.129.177s.043.141.043.225c0 .088-.017.167-.051.237s-.084.129-.149.177c-.065.049-.143.085-.233.11s-.19.038-.302.038c-.1 0-.2-.013-.297-.039a.912.912 0 0 1-.27-.123l.003.002a.621.621 0 0 1-.188-.204l-.002-.003a.588.588 0 0 1-.071-.297h.42c0 .063.01.117.03.16a.276.276 0 0 0 .081.106h.001c.036.027.08.047.126.058h.002c.05.012.105.018.165.018h.015a.443.443 0 0 0 .167-.032l-.003.001a.221.221 0 0 0 .14-.205v-.003z"/></symbol><symbol id="icon-group4" viewBox="0 0 26 20"><path fill="#afb1b8" style="fill:var(--color3, #afb1b8)" d="M3.243 14.346c.09.102.138.23.136.362l.001.027a.517.517 0 0 1-.051.226l.001-.003a.587.587 0 0 1-.161.206l-.001.001a.961.961 0 0 1-.615.167h.003H1.48v-2.293h1.053l.062-.002c.194 0 .374.057.525.156l-.004-.002a.499.499 0 0 1 .204.43.5.5 0 0 1-.122.35.584.584 0 0 1-.321.179.623.623 0 0 1 .363.196zM1.982 14h.45a.454.454 0 0 0 .286-.076.267.267 0 0 0 .076-.1l.001-.002a.252.252 0 0 0 .021-.1l-.001-.023v.001l.001-.019a.258.258 0 0 0-.022-.104l.001.002a.277.277 0 0 0-.075-.102.464.464 0 0 0-.259-.079l-.038.001h.002-.443v.602zm.781.88a.293.293 0 0 0 .082-.103l.001-.002a.261.261 0 0 0 .024-.11l-.001-.019v.001l.001-.017a.255.255 0 0 0-.026-.114l.001.002a.29.29 0 0 0-.084-.105H2.76a.487.487 0 0 0-.276-.084l-.032.001h.001-.472v.631h.479a.5.5 0 0 0 .302-.08zm2.633.452-.586-.896h-.22v.896h-.504v-2.293h.954l.068-.002c.225 0 .432.074.599.199l-.003-.002a.707.707 0 0 1 .229.51.69.69 0 0 1-.159.44l.001-.001a.787.787 0 0 1-.451.232l-.004.001.624.916h-.548zm-.806-1.209h.412c.286 0 .43-.116.43-.347l.001-.018a.31.31 0 0 0-.025-.122l.001.002a.334.334 0 0 0-.082-.119.47.47 0 0 0-.284-.095l-.042.002h.002-.417l.005.698zm3.562.747H7.148l-.177.462h-.529l.922-2.267h.571l.919 2.267h-.528l-.174-.461zm-.135-.347-.367-.968-.367.968h.734zm3.584.809h-.5l-1.122-1.559v1.559H9.48v-2.293h.499l1.122 1.569v-1.569h.5v2.293zm2.856-.549a1.041 1.041 0 0 1-.453.404 1.557 1.557 0 0 1-.663.145l-.043-.001h.002-.89v-2.293h.891l.042-.001c.24 0 .467.052.672.145l-.01-.004c.191.089.349.228.453.4a1.24 1.24 0 0 1 0 1.203zm-.573-.054a.794.794 0 0 0 .221-.547.801.801 0 0 0-.221-.547.915.915 0 0 0-.629-.195h.003-.347v1.484h.347a.917.917 0 0 0 .628-.196l-.002.001zM8.465.284s6.459 2.233 6.322 5.463v5.464s-6.454-2.233-6.32-5.464L8.465.284zm12.076 9.649a9.364 9.364 0 0 1 4.104-1.384V6.838c-1.697.599-3.137 1.685-4.104 3.096z"/><path fill="#afb1b8" style="fill:var(--color3, #afb1b8)" d="M19.808 10.448c.998-1.841 2.729-3.261 4.836-3.969V1.55s-9.198 3.18-9.004 7.781v7.78s.41-.142 1.055-.409c0-.249 0-.5.03-.752.19-2.136 1.299-4.115 3.083-5.503z"/><path fill="#afb1b8" style="fill:var(--color3, #afb1b8)" d="M18.933 13.338c.048-.54.156-1.073.322-1.593-1.111 1.198-1.784 2.685-1.923 4.251a5.993 5.993 0 0 0-.024.448 25.848 25.848 0 0 0 1.917-.926l-.148.073a7.388 7.388 0 0 1-.143-2.253zm.366.028a7.1 7.1 0 0 0 .122 2.085l-.008-.046c2.513-1.377 5.337-3.504 5.228-6.075v-.224c-1.796.184-3.475.903-4.781 2.046a6.962 6.962 0 0 0-.558 2.186l-.002.028z"/></symbol><symbol id="icon-group5" viewBox="0 0 42 20"><path fill="#afb1b8" style="fill:var(--color3, #afb1b8)" d="M21.078 9.515a1.306 1.306 0 0 1-.269-.888v.004-1.282c0-.392.089-.691.268-.896s.484-.306.918-.305c.408 0 .697.087.868.261.187.222.278.493.257.766v.301h-.729v-.305c.002-.1-.004-.2-.021-.298a.29.29 0 0 0-.104-.177h-.001a.418.418 0 0 0-.233-.07l-.033.001H22l-.032-.001a.448.448 0 0 0-.248.075l.002-.001a.342.342 0 0 0-.12.193v.002a1.482 1.482 0 0 0-.029.292v.026-.001 1.555c-.012.15.021.3.093.436a.346.346 0 0 0 .143.105l.002.001a.393.393 0 0 0 .19.024h-.002a.396.396 0 0 0 .259-.071l-.001.001a.314.314 0 0 0 .109-.187v-.002c.017-.103.025-.208.023-.312v-.316h.729v.288a1.17 1.17 0 0 1-.254.808l.002-.002c-.168.19-.453.285-.873.285s-.737-.102-.916-.313zm3.036.013c-.184-.2-.276-.49-.276-.875V7.305c0-.381.092-.669.276-.864s.492-.293.924-.292c.429 0 .735.098.92.292.184.196.278.484.278.864v1.348c0 .381-.093.673-.281.874s-.492.301-.916.301-.738-.102-.924-.3zm1.264-.324a.755.755 0 0 0 .088-.399V7.154l.001-.044a.732.732 0 0 0-.089-.351l.002.004a.338.338 0 0 0-.147-.106l-.002-.001a.387.387 0 0 0-.195-.023h.002a.412.412 0 0 0-.195.024l.003-.001a.353.353 0 0 0-.149.107l-.001.001a.718.718 0 0 0-.088.391v1.658a.739.739 0 0 0 .088.399.448.448 0 0 0 .154.099.514.514 0 0 0 .378-.002l-.003.001a.458.458 0 0 0 .154-.099v-.008zm1.735-3.016h.785l.59 2.487.604-2.487h.764l.077 3.589h-.565l-.06-2.495-.583 2.495h-.453l-.604-2.504-.056 2.504h-.571l.071-3.589zm3.7 0h1.223c.704 0 1.057.34 1.057 1.019 0 .651-.371.976-1.113.975h-.416v1.595h-.755l.004-3.59zm1.045 1.534c.075.008.15.003.222-.017s.138-.052.193-.096a.58.58 0 0 0 .109-.405l.001-.039c0-.102-.014-.2-.039-.294l.002.008a.269.269 0 0 0-.056-.099.307.307 0 0 0-.093-.071l-.002-.001a.771.771 0 0 0-.297-.059l-.041.001h.002-.293v1.073h.293zm2.324-1.534h.811l.832 3.589h-.704l-.164-.828h-.723l-.169.828h-.714l.832-3.589zm.693 2.347-.283-1.507-.282 1.507h.564zm1.621-2.347h.529l1.011 2.048V6.188h.627v3.589h-.503l-1.018-2.138v2.138h-.648l.001-3.589zm3.635 2.221-.841-2.216h.708l.513 1.424.481-1.424h.693l-.831 2.216v1.368h-.724V8.408zm-17.887 2.939v.188h-.616v1.459h-.258v-1.459h-.619v-.188h1.493zm1.931 1.646H23.969a.09.09 0 0 1-.051-.016.09.09 0 0 1-.033-.037v-.001l-.178-.391h-.855l-.178.391a.101.101 0 0 1-.028.044.088.088 0 0 1-.051.016H22.391l.755-1.646h.262l.764 1.64zm-1.251-.611h.712l-.302-.67a1.086 1.086 0 0 1-.053-.147l-.002-.008c-.011.031-.02.061-.028.088l-.028.069-.299.669zm2.552.449a.812.812 0 0 0 .262-.02 1.034 1.034 0 0 0 .21-.07v-.37h-.305a.062.062 0 0 1-.038-.013.028.028 0 0 1-.011-.013.033.033 0 0 1-.004-.015v-.128h.586v.631a1.132 1.132 0 0 1-.31.132l-.008.002a1.336 1.336 0 0 1-.189.034c-.073.007-.147.01-.22.01h-.01c-.133 0-.26-.022-.379-.064l.008.002a.922.922 0 0 1-.303-.173l.001.001a.809.809 0 0 1-.193-.256l-.002-.005a.806.806 0 0 1-.069-.331v-.012.001-.01a.85.85 0 0 1 .07-.339l-.002.006a.746.746 0 0 1 .195-.261.926.926 0 0 1 .302-.171c.129-.042.267-.063.404-.061.07 0 .14.004.21.014.061.009.122.023.18.042a.849.849 0 0 1 .151.065c.046.026.09.054.132.086l-.072.102a.064.064 0 0 1-.024.022.079.079 0 0 1-.035.009.095.095 0 0 1-.047-.013.817.817 0 0 1-.079-.041l.004.002a.605.605 0 0 0-.096-.043l-.005-.001a.882.882 0 0 0-.133-.036l-.006-.001a1.14 1.14 0 0 0-.182-.014h-.011.001-.009a.894.894 0 0 0-.289.048l.006-.002a.576.576 0 0 0-.361.331l-.001.004a.755.755 0 0 0 .001.554l-.002-.005a.594.594 0 0 0 .151.208.648.648 0 0 0 .22.13c.096.028.198.04.299.032zm2.407-.026h.824v.188h-1.076v-1.646h.258l-.006 1.459zm1.681.188h-.258v-1.646h.258v1.646zm.961-1.638a.12.12 0 0 1 .039.03l1.104 1.241-.001-.029.001-.031v.001-1.227h.225v1.653h-.138a.125.125 0 0 1-.048-.01h.001a.138.138 0 0 1-.04-.031l-1.102-1.24v1.28h-.216v-1.646h.134c.015 0 .029.003.042.008zm3.269-.008v.181h-.915v.544h.741v.175h-.741v.562h.915v.181h-1.18v-1.642h1.18zM6.739 1.18l11.464 2.81v9.848L6.739 11.029v-9.85zM6.003.34v11.168l12.933 3.172V3.514L6.003.342z"/><path fill="#afb1b8" style="fill:var(--color3, #afb1b8)" d="M12.935 19.863 0 16.689V5.523l12.935 3.173v11.167z"/><path fill="#afb1b8" style="fill:var(--color3, #afb1b8)" d="m6.218 1.054 11.315 2.775-4.812 4.156L1.404 5.209l4.814-4.155zM6.003.341 0 5.523l12.935 3.173 6.002-5.184L6.004.34zm7.66 18.894 5.274-4.555-5.275-1.293v5.849z"/></symbol><symbol id="icon-instagram" viewBox="0 0 20 20"><path  d="M19.98 5.88c-.046-1.063-.218-1.793-.464-2.426a4.897 4.897 0 0 0-1.156-1.773l-.001-.001A4.943 4.943 0 0 0 16.623.538l-.034-.011C15.952.281 15.226.11 14.163.063 13.093.012 12.753 0 10.037 0S6.982.012 5.915.059C4.853.105 4.122.277 3.49.523a4.91 4.91 0 0 0-1.774 1.156l-.001.001A4.94 4.94 0 0 0 .574 3.416l-.011.034C.316 4.087.145 4.813.098 5.876c-.051 1.07-.063 1.41-.063 4.126s.012 3.055.059 4.122c.047 1.063.219 1.793.465 2.426.267.694.66 1.286 1.155 1.773l.001.001a4.92 4.92 0 0 0 1.77 1.152c.637.247 1.364.419 2.426.465 1.067.047 1.407.059 4.122.059s3.056-.012 4.122-.059c1.063-.046 1.793-.218 2.426-.464a5.148 5.148 0 0 0 2.915-2.892l.012-.035c.246-.637.418-1.364.465-2.426.047-1.067.058-1.407.058-4.122s-.004-3.055-.05-4.122zm-1.8 8.166c-.044.977-.208 1.504-.344 1.856a3.337 3.337 0 0 1-1.877 1.89l-.023.008c-.35.137-.882.301-1.855.344-1.055.047-1.371.059-4.04.059s-2.989-.012-4.04-.059c-.977-.043-1.504-.207-1.856-.344a3.085 3.085 0 0 1-1.147-.745l-.001-.001a3.123 3.123 0 0 1-.74-1.127l-.007-.021c-.136-.352-.3-.883-.343-1.856-.047-1.055-.059-1.372-.059-4.04s.012-2.99.059-4.04c.043-.977.207-1.504.343-1.856.168-.451.424-.836.749-1.148L3 2.965a3.107 3.107 0 0 1 1.129-.739l.021-.007c.35-.137.882-.3 1.855-.344 1.055-.046 1.372-.058 4.04-.058 2.672 0 2.989.012 4.04.058.977.043 1.504.207 1.856.344.433.16.828.414 1.148.746.332.325.586.715.747 1.15.136.35.3.882.343 1.855.047 1.055.059 1.371.059 4.04s-.012 2.98-.059 4.036z"/><path  d="M10.037 4.864A5.14 5.14 0 0 0 4.9 10.002a5.139 5.139 0 0 0 10.276.006v-.005a5.14 5.14 0 0 0-5.138-5.138zm0 8.47a3.333 3.333 0 1 1 0-6.666h.001a3.333 3.333 0 1 1 0 6.666zm6.541-8.673a1.2 1.2 0 1 1-2.4 0 1.2 1.2 0 1 1 2.4 0z"/></symbol><symbol id="icon-linkedin" viewBox="0 0 20 20"><path   d="M19.995 20H20v-7.336c0-3.588-.773-6.352-4.967-6.352-2.017 0-3.37 1.106-3.923 2.156h-.058V6.647H7.074v13.352h4.142v-6.611c0-1.741.33-3.425 2.486-3.425 2.124 0 2.155 1.987 2.155 3.536V20h4.138zM.33 6.647h4.147V20H.33V6.647zM2.402 0A2.401 2.401 0 0 0 0 2.402c0 1.325 1.076 2.424 2.402 2.424s2.401-1.098 2.401-2.424A2.403 2.403 0 0 0 2.402 0z"/></symbol><symbol id="icon-mail" viewBox="0 0 27 20"><path  d="M24.167 0H2.5A2.503 2.503 0 0 0 0 2.5v15C0 18.878 1.122 20 2.5 20h21.667c1.378 0 2.5-1.122 2.5-2.5v-15c0-1.378-1.122-2.5-2.5-2.5zm0 1.667c.113 0 .222.023.32.065l-11.153 9.667L2.181 1.732a.805.805 0 0 1 .32-.065h21.667zm0 16.666H2.5a.833.833 0 0 1-.833-.833V3.492l11.12 9.638a.83.83 0 0 0 1.095-.001l-.001.001 11.12-9.638V17.5c0 .46-.373.833-.833.833z"/></symbol><symbol id="icon-smartphone" viewBox="0 0 13 20"><path  d="M10.625 0h-8.75A1.877 1.877 0 0 0 0 1.875v16.25C0 19.159.841 20 1.875 20h8.75a1.877 1.877 0 0 0 1.875-1.875V1.875A1.877 1.877 0 0 0 10.625 0zm-8.75 1.25h8.75c.345 0 .625.28.625.625V15h-10V1.875c0-.345.28-.625.625-.625zm8.75 17.5h-8.75a.625.625 0 0 1-.625-.625V16.25h10v1.875c0 .345-.28.625-.625.625z"/><path  d="M2.942 17.174a.553.553 0 0 1 0 .824.655.655 0 0 1-.885 0 .554.554 0 0 1 0-.825.655.655 0 0 1 .885 0z"/></symbol><symbol id="icon-twitter" viewBox="0 0 20 20"><path  d="M20 3.799a8.33 8.33 0 0 1-2.32.643l-.043.004a4.097 4.097 0 0 0 1.796-2.237l.008-.029a8.027 8.027 0 0 1-2.547.983l-.053.009A4.099 4.099 0 0 0 9.75 5.974v.002c0 .325.027.638.095.935-3.409-.166-6.425-1.8-8.451-4.288a4.072 4.072 0 0 0-.564 2.07v.001c0 1.42.732 2.679 1.821 3.407A4.025 4.025 0 0 1 .78 7.586l.02.011v.045a4.12 4.12 0 0 0 3.258 4.025l.027.005c-.312.085-.67.134-1.039.134h-.038.002c-.262 0-.527-.015-.776-.07.531 1.624 2.038 2.818 3.831 2.856a8.186 8.186 0 0 1-5.077 1.75H.98c-.336 0-.658-.016-.981-.057a11.435 11.435 0 0 0 6.253 1.84h.039-.002c7.545 0 11.67-6.25 11.67-11.668 0-.18-.006-.356-.015-.53a8.227 8.227 0 0 0 2.036-2.098l.019-.029z"/></symbol></defs></svg>